<mxfile host="Electron" agent="Mozilla/5.0 (Windows NT 10.0; Win64; x64) AppleWebKit/537.36 (KHTML, like Gecko) draw.io/24.7.8 Chrome/128.0.6613.36 Electron/32.0.1 Safari/537.36" version="24.7.8">
  <diagram name="Page-1" id="FT5NxyrCxKl75aSBoO3l">
    <mxGraphModel dx="1014" dy="1865" grid="1" gridSize="10" guides="1" tooltips="1" connect="1" arrows="1" fold="1" page="1" pageScale="1" pageWidth="850" pageHeight="1100" math="0" shadow="0">
      <root>
        <mxCell id="0" />
        <mxCell id="1" parent="0" />
        <mxCell id="corKyDVkkb00_pDAACmw-1" value="START" style="ellipse;whiteSpace=wrap;html=1;fontFamily=Helvetica;fontStyle=0" parent="1" vertex="1">
          <mxGeometry x="40" y="-10" width="120" height="80" as="geometry" />
        </mxCell>
        <mxCell id="corKyDVkkb00_pDAACmw-2" value="&lt;strong&gt;Input&lt;/strong&gt;: Get customerName" style="shape=parallelogram;perimeter=parallelogramPerimeter;whiteSpace=wrap;html=1;fixedSize=1;fontFamily=Helvetica;fontStyle=0" parent="1" vertex="1">
          <mxGeometry x="40" y="90" width="120" height="60" as="geometry" />
        </mxCell>
        <mxCell id="corKyDVkkb00_pDAACmw-3" value="&lt;strong&gt;Input&lt;/strong&gt;: Get&lt;div&gt;&amp;nbsp;projHours&lt;/div&gt;" style="shape=parallelogram;perimeter=parallelogramPerimeter;whiteSpace=wrap;html=1;fixedSize=1;fontFamily=Helvetica;fontStyle=0" parent="1" vertex="1">
          <mxGeometry x="40" y="170" width="120" height="60" as="geometry" />
        </mxCell>
        <mxCell id="corKyDVkkb00_pDAACmw-4" value="&lt;strong&gt;Input&lt;/strong&gt;: Get&amp;nbsp;&lt;div&gt;materialsCost&lt;/div&gt;" style="shape=parallelogram;perimeter=parallelogramPerimeter;whiteSpace=wrap;html=1;fixedSize=1;fontFamily=Helvetica;fontStyle=0" parent="1" vertex="1">
          <mxGeometry x="25" y="260" width="150" height="60" as="geometry" />
        </mxCell>
        <mxCell id="corKyDVkkb00_pDAACmw-8" value="&lt;strong&gt;Output&lt;/strong&gt;: Display customerName" style="shape=parallelogram;perimeter=parallelogramPerimeter;whiteSpace=wrap;html=1;fixedSize=1;fontFamily=Helvetica;fontStyle=0" parent="1" vertex="1">
          <mxGeometry x="285" y="190" width="150" height="60" as="geometry" />
        </mxCell>
        <mxCell id="corKyDVkkb00_pDAACmw-9" value="&lt;strong&gt;Output&lt;/strong&gt;:&amp;nbsp;&lt;div&gt;Display projHours&lt;/div&gt;" style="shape=parallelogram;perimeter=parallelogramPerimeter;whiteSpace=wrap;html=1;fixedSize=1;fontFamily=Helvetica;fontStyle=0" parent="1" vertex="1">
          <mxGeometry x="285" y="270" width="150" height="60" as="geometry" />
        </mxCell>
        <mxCell id="corKyDVkkb00_pDAACmw-10" value="&lt;strong&gt;Output&lt;/strong&gt;:&amp;nbsp;&lt;div&gt;Display laborCost&lt;/div&gt;" style="shape=parallelogram;perimeter=parallelogramPerimeter;whiteSpace=wrap;html=1;fixedSize=1;fontFamily=Helvetica;fontStyle=0" parent="1" vertex="1">
          <mxGeometry x="285" y="350" width="150" height="60" as="geometry" />
        </mxCell>
        <mxCell id="corKyDVkkb00_pDAACmw-11" value="&lt;strong&gt;Output&lt;/strong&gt;:&amp;nbsp;&lt;div&gt;Display totalCost&lt;/div&gt;" style="shape=parallelogram;perimeter=parallelogramPerimeter;whiteSpace=wrap;html=1;fixedSize=1;fontFamily=Helvetica;fontStyle=0" parent="1" vertex="1">
          <mxGeometry x="285" y="430" width="150" height="50" as="geometry" />
        </mxCell>
        <mxCell id="corKyDVkkb00_pDAACmw-13" value="END" style="ellipse;whiteSpace=wrap;html=1;fontFamily=Helvetica;fontStyle=0" parent="1" vertex="1">
          <mxGeometry x="300" y="580" width="120" height="80" as="geometry" />
        </mxCell>
        <mxCell id="corKyDVkkb00_pDAACmw-14" value="" style="endArrow=classic;html=1;rounded=0;exitX=0.5;exitY=1;exitDx=0;exitDy=0;entryX=0.5;entryY=0;entryDx=0;entryDy=0;fontFamily=Helvetica;fontStyle=0" parent="1" source="corKyDVkkb00_pDAACmw-2" target="corKyDVkkb00_pDAACmw-3" edge="1">
          <mxGeometry width="50" height="50" relative="1" as="geometry">
            <mxPoint x="400" y="400" as="sourcePoint" />
            <mxPoint x="450" y="350" as="targetPoint" />
          </mxGeometry>
        </mxCell>
        <mxCell id="corKyDVkkb00_pDAACmw-12" value="&lt;strong&gt;Output&lt;/strong&gt;: Display &quot;Program complete&quot;" style="shape=parallelogram;perimeter=parallelogramPerimeter;whiteSpace=wrap;html=1;fixedSize=1;fontFamily=Helvetica;fontStyle=0" parent="1" vertex="1">
          <mxGeometry x="290" y="500" width="140" height="60" as="geometry" />
        </mxCell>
        <mxCell id="corKyDVkkb00_pDAACmw-22" value="" style="endArrow=classic;html=1;rounded=0;entryX=0.5;entryY=0;entryDx=0;entryDy=0;exitX=0.5;exitY=1;exitDx=0;exitDy=0;fontFamily=Helvetica;fontStyle=0" parent="1" source="corKyDVkkb00_pDAACmw-8" target="corKyDVkkb00_pDAACmw-9" edge="1">
          <mxGeometry width="50" height="50" relative="1" as="geometry">
            <mxPoint x="400" y="400" as="sourcePoint" />
            <mxPoint x="450" y="350" as="targetPoint" />
          </mxGeometry>
        </mxCell>
        <mxCell id="corKyDVkkb00_pDAACmw-23" value="" style="endArrow=classic;html=1;rounded=0;exitX=0.5;exitY=1;exitDx=0;exitDy=0;fontFamily=Helvetica;fontStyle=0;entryX=0.5;entryY=0;entryDx=0;entryDy=0;" parent="1" source="corKyDVkkb00_pDAACmw-9" target="corKyDVkkb00_pDAACmw-10" edge="1">
          <mxGeometry width="50" height="50" relative="1" as="geometry">
            <mxPoint x="400" y="400" as="sourcePoint" />
            <mxPoint x="410" y="170" as="targetPoint" />
          </mxGeometry>
        </mxCell>
        <mxCell id="corKyDVkkb00_pDAACmw-24" value="" style="endArrow=classic;html=1;rounded=0;entryX=0.5;entryY=0;entryDx=0;entryDy=0;exitX=0.5;exitY=1;exitDx=0;exitDy=0;fontFamily=Helvetica;fontStyle=0" parent="1" source="corKyDVkkb00_pDAACmw-10" target="corKyDVkkb00_pDAACmw-11" edge="1">
          <mxGeometry width="50" height="50" relative="1" as="geometry">
            <mxPoint x="400" y="400" as="sourcePoint" />
            <mxPoint x="450" y="350" as="targetPoint" />
          </mxGeometry>
        </mxCell>
        <mxCell id="corKyDVkkb00_pDAACmw-25" value="" style="endArrow=classic;html=1;rounded=0;exitX=0.5;exitY=1;exitDx=0;exitDy=0;entryX=0.5;entryY=0;entryDx=0;entryDy=0;fontFamily=Helvetica;fontStyle=0" parent="1" source="corKyDVkkb00_pDAACmw-11" target="corKyDVkkb00_pDAACmw-12" edge="1">
          <mxGeometry width="50" height="50" relative="1" as="geometry">
            <mxPoint x="400" y="400" as="sourcePoint" />
            <mxPoint x="450" y="350" as="targetPoint" />
          </mxGeometry>
        </mxCell>
        <mxCell id="corKyDVkkb00_pDAACmw-26" value="" style="endArrow=classic;html=1;rounded=0;entryX=0.5;entryY=0;entryDx=0;entryDy=0;exitX=0.5;exitY=1;exitDx=0;exitDy=0;fontFamily=Helvetica;fontStyle=0" parent="1" source="corKyDVkkb00_pDAACmw-12" target="corKyDVkkb00_pDAACmw-13" edge="1">
          <mxGeometry width="50" height="50" relative="1" as="geometry">
            <mxPoint x="400" y="400" as="sourcePoint" />
            <mxPoint x="450" y="350" as="targetPoint" />
          </mxGeometry>
        </mxCell>
        <mxCell id="-ISh1TWFzGcS-yHQbqMt-3" value="&lt;strong&gt;Input&lt;/strong&gt;:&amp;nbsp;&lt;div&gt;markupPercent = 1.2&lt;/div&gt;" style="shape=parallelogram;perimeter=parallelogramPerimeter;whiteSpace=wrap;html=1;fixedSize=1;fontFamily=Helvetica;fontStyle=0" parent="1" vertex="1">
          <mxGeometry x="22.5" y="440" width="155" height="70" as="geometry" />
        </mxCell>
        <mxCell id="-ISh1TWFzGcS-yHQbqMt-4" value="&lt;strong&gt;Input&lt;/strong&gt;:&amp;nbsp;&lt;div&gt;laborRate =30&lt;/div&gt;" style="shape=parallelogram;perimeter=parallelogramPerimeter;whiteSpace=wrap;html=1;fixedSize=1;fontFamily=Helvetica;fontStyle=0" parent="1" vertex="1">
          <mxGeometry x="25" y="350" width="150" height="60" as="geometry" />
        </mxCell>
        <mxCell id="-ISh1TWFzGcS-yHQbqMt-11" value="&lt;div&gt;&lt;span style=&quot;color: rgb(0, 0, 0); font-family: Helvetica; font-size: 12px; font-style: normal; font-variant-ligatures: normal; font-variant-caps: normal; font-weight: 400; letter-spacing: normal; orphans: 2; text-align: center; text-indent: 0px; text-transform: none; widows: 2; word-spacing: 0px; -webkit-text-stroke-width: 0px; white-space: normal; background-color: rgb(251, 251, 251); text-decoration-thickness: initial; text-decoration-style: initial; text-decoration-color: initial; display: inline !important; float: none;&quot;&gt;&lt;strong&gt;&lt;br&gt;&lt;/strong&gt;&lt;/span&gt;&lt;/div&gt;&lt;span style=&quot;color: rgb(0, 0, 0); font-family: Helvetica; font-size: 12px; font-style: normal; font-variant-ligatures: normal; font-variant-caps: normal; font-weight: 400; letter-spacing: normal; orphans: 2; text-align: center; text-indent: 0px; text-transform: none; widows: 2; word-spacing: 0px; -webkit-text-stroke-width: 0px; white-space: normal; background-color: rgb(251, 251, 251); text-decoration-thickness: initial; text-decoration-style: initial; text-decoration-color: initial; display: inline !important; float: none;&quot;&gt;&lt;strong&gt;Process&lt;/strong&gt;:&lt;br&gt;&lt;/span&gt;&lt;div&gt;laborCost = laborRate * projHours&lt;/div&gt;" style="rounded=0;whiteSpace=wrap;html=1;" parent="1" vertex="1">
          <mxGeometry x="30" y="540" width="140" height="70" as="geometry" />
        </mxCell>
        <mxCell id="-ISh1TWFzGcS-yHQbqMt-12" value="&lt;div&gt;&lt;span style=&quot;color: rgb(0, 0, 0); font-family: Helvetica; font-size: 12px; font-style: normal; font-variant-ligatures: normal; font-variant-caps: normal; font-weight: 400; letter-spacing: normal; orphans: 2; text-align: center; text-indent: 0px; text-transform: none; widows: 2; word-spacing: 0px; -webkit-text-stroke-width: 0px; white-space: normal; background-color: rgb(251, 251, 251); text-decoration-thickness: initial; text-decoration-style: initial; text-decoration-color: initial; display: inline !important; float: none;&quot;&gt;&lt;strong&gt;&lt;br&gt;&lt;/strong&gt;&lt;/span&gt;&lt;/div&gt;&lt;span style=&quot;color: rgb(0, 0, 0); font-family: Helvetica; font-size: 12px; font-style: normal; font-variant-ligatures: normal; font-variant-caps: normal; font-weight: 400; letter-spacing: normal; orphans: 2; text-align: center; text-indent: 0px; text-transform: none; widows: 2; word-spacing: 0px; -webkit-text-stroke-width: 0px; white-space: normal; background-color: rgb(251, 251, 251); text-decoration-thickness: initial; text-decoration-style: initial; text-decoration-color: initial; display: inline !important; float: none;&quot;&gt;&lt;strong&gt;Process&lt;/strong&gt;:&lt;br&gt;&lt;/span&gt;&lt;div&gt;materialMarkup = materialsCost * markupPercent&lt;br&gt;&lt;br&gt;&lt;/div&gt;" style="rounded=0;whiteSpace=wrap;html=1;" parent="1" vertex="1">
          <mxGeometry x="290" y="10" width="140" height="70" as="geometry" />
        </mxCell>
        <mxCell id="-ISh1TWFzGcS-yHQbqMt-13" value="" style="endArrow=classic;html=1;rounded=0;exitX=0.5;exitY=1;exitDx=0;exitDy=0;entryX=0.5;entryY=0;entryDx=0;entryDy=0;" parent="1" source="corKyDVkkb00_pDAACmw-3" target="corKyDVkkb00_pDAACmw-4" edge="1">
          <mxGeometry width="50" height="50" relative="1" as="geometry">
            <mxPoint x="410" y="250" as="sourcePoint" />
            <mxPoint x="460" y="200" as="targetPoint" />
          </mxGeometry>
        </mxCell>
        <mxCell id="-ISh1TWFzGcS-yHQbqMt-14" value="" style="endArrow=classic;html=1;rounded=0;exitX=0.5;exitY=1;exitDx=0;exitDy=0;entryX=0.5;entryY=0;entryDx=0;entryDy=0;" parent="1" source="corKyDVkkb00_pDAACmw-4" target="-ISh1TWFzGcS-yHQbqMt-4" edge="1">
          <mxGeometry width="50" height="50" relative="1" as="geometry">
            <mxPoint x="410" y="420" as="sourcePoint" />
            <mxPoint x="460" y="370" as="targetPoint" />
          </mxGeometry>
        </mxCell>
        <mxCell id="-ISh1TWFzGcS-yHQbqMt-15" value="" style="endArrow=classic;html=1;rounded=0;exitX=0.5;exitY=1;exitDx=0;exitDy=0;entryX=0.5;entryY=0;entryDx=0;entryDy=0;" parent="1" source="-ISh1TWFzGcS-yHQbqMt-4" target="-ISh1TWFzGcS-yHQbqMt-3" edge="1">
          <mxGeometry width="50" height="50" relative="1" as="geometry">
            <mxPoint x="410" y="420" as="sourcePoint" />
            <mxPoint x="460" y="370" as="targetPoint" />
          </mxGeometry>
        </mxCell>
        <mxCell id="-ISh1TWFzGcS-yHQbqMt-16" value="" style="endArrow=classic;html=1;rounded=0;exitX=0.5;exitY=1;exitDx=0;exitDy=0;entryX=0.5;entryY=0;entryDx=0;entryDy=0;" parent="1" source="-ISh1TWFzGcS-yHQbqMt-3" edge="1">
          <mxGeometry width="50" height="50" relative="1" as="geometry">
            <mxPoint x="410" y="420" as="sourcePoint" />
            <mxPoint x="100" y="540" as="targetPoint" />
          </mxGeometry>
        </mxCell>
        <mxCell id="-ISh1TWFzGcS-yHQbqMt-18" value="" style="endArrow=classic;html=1;rounded=0;exitX=1;exitY=0.5;exitDx=0;exitDy=0;entryX=0;entryY=0.5;entryDx=0;entryDy=0;" parent="1" source="-ISh1TWFzGcS-yHQbqMt-11" target="-ISh1TWFzGcS-yHQbqMt-12" edge="1">
          <mxGeometry width="50" height="50" relative="1" as="geometry">
            <mxPoint x="410" y="620" as="sourcePoint" />
            <mxPoint x="460" y="570" as="targetPoint" />
            <Array as="points">
              <mxPoint x="190" y="575" />
              <mxPoint x="260" y="45" />
            </Array>
          </mxGeometry>
        </mxCell>
        <mxCell id="-ISh1TWFzGcS-yHQbqMt-22" value="" style="endArrow=classic;html=1;rounded=0;exitX=0.5;exitY=1;exitDx=0;exitDy=0;" parent="1" source="-ISh1TWFzGcS-yHQbqMt-12" edge="1">
          <mxGeometry width="50" height="50" relative="1" as="geometry">
            <mxPoint x="410" y="360" as="sourcePoint" />
            <mxPoint x="360" y="100" as="targetPoint" />
          </mxGeometry>
        </mxCell>
        <mxCell id="-ISh1TWFzGcS-yHQbqMt-28" value="" style="endArrow=classic;html=1;rounded=0;entryX=0.5;entryY=0;entryDx=0;entryDy=0;exitX=0.5;exitY=1;exitDx=0;exitDy=0;" parent="1" source="corKyDVkkb00_pDAACmw-1" target="corKyDVkkb00_pDAACmw-2" edge="1">
          <mxGeometry width="50" height="50" relative="1" as="geometry">
            <mxPoint x="410" y="360" as="sourcePoint" />
            <mxPoint x="460" y="310" as="targetPoint" />
          </mxGeometry>
        </mxCell>
        <mxCell id="-ISh1TWFzGcS-yHQbqMt-30" value="&lt;br&gt;&lt;span style=&quot;forced-color-adjust: none; color: rgb(0, 0, 0); font-family: Helvetica; font-size: 12px; font-style: normal; font-variant-ligatures: normal; font-variant-caps: normal; font-weight: 400; letter-spacing: normal; orphans: 2; text-align: center; text-indent: 0px; text-transform: none; widows: 2; word-spacing: 0px; -webkit-text-stroke-width: 0px; white-space: normal; text-decoration-thickness: initial; text-decoration-style: initial; text-decoration-color: initial; background-color: rgb(251, 251, 251); float: none; display: inline !important;&quot;&gt;&lt;strong style=&quot;forced-color-adjust: none;&quot;&gt;&lt;br class=&quot;Apple-interchange-newline&quot;&gt;Process&lt;/strong&gt;:&lt;br style=&quot;forced-color-adjust: none;&quot;&gt;&lt;/span&gt;&lt;div style=&quot;forced-color-adjust: none; color: rgb(0, 0, 0); font-family: Helvetica; font-size: 12px; font-style: normal; font-variant-ligatures: normal; font-variant-caps: normal; font-weight: 400; letter-spacing: normal; orphans: 2; text-align: center; text-indent: 0px; text-transform: none; widows: 2; word-spacing: 0px; -webkit-text-stroke-width: 0px; white-space: normal; background-color: rgb(251, 251, 251); text-decoration-thickness: initial; text-decoration-style: initial; text-decoration-color: initial;&quot;&gt;totalCost = laborCost + materialMarkup&lt;br style=&quot;forced-color-adjust: none;&quot;&gt;&lt;/div&gt;&lt;div&gt;&lt;br&gt;&lt;/div&gt;" style="shape=process;whiteSpace=wrap;html=1;backgroundOutline=1;" parent="1" vertex="1">
          <mxGeometry x="285" y="100" width="150" height="70" as="geometry" />
        </mxCell>
        <mxCell id="-ISh1TWFzGcS-yHQbqMt-31" value="" style="endArrow=classic;html=1;rounded=0;entryX=0.5;entryY=0;entryDx=0;entryDy=0;exitX=0.5;exitY=1;exitDx=0;exitDy=0;" parent="1" source="-ISh1TWFzGcS-yHQbqMt-30" target="corKyDVkkb00_pDAACmw-8" edge="1">
          <mxGeometry width="50" height="50" relative="1" as="geometry">
            <mxPoint x="330" y="350" as="sourcePoint" />
            <mxPoint x="380" y="300" as="targetPoint" />
          </mxGeometry>
        </mxCell>
      </root>
    </mxGraphModel>
  </diagram>
</mxfile>
